<mxfile modified="2021-02-25T08:07:34.383Z" host="app.diagrams.net" agent="5.0 (X11; Linux x86_64) AppleWebKit/537.36 (KHTML, like Gecko) Chrome/88.0.4324.182 Safari/537.36" etag="cCSsEXx0gYwqjUkvYo1D" version="14.4.3" type="github">
  <diagram id="VGYoGnhX1GjplIecpwsv" name="Page-2">
    <mxGraphModel dx="1185" dy="644" grid="1" gridSize="10" guides="1" tooltips="1" connect="1" arrows="1" fold="1" page="1" pageScale="1" pageWidth="827" pageHeight="1169" math="0" shadow="0">
      <root>
        <mxCell id="X9vcymnaEY-GoFMe6BhC-0" />
        <mxCell id="X9vcymnaEY-GoFMe6BhC-1" parent="X9vcymnaEY-GoFMe6BhC-0" />
        <mxCell id="TPyWH2fQd8cY5jXHpMgm-1" value="Amazon EC2" style="outlineConnect=0;fontColor=#232F3E;gradientColor=none;strokeColor=#ffffff;fillColor=#232F3E;dashed=0;verticalLabelPosition=middle;verticalAlign=bottom;align=center;html=1;whiteSpace=wrap;fontSize=10;fontStyle=1;spacing=3;shape=mxgraph.aws4.productIcon;prIcon=mxgraph.aws4.ec2;" vertex="1" parent="X9vcymnaEY-GoFMe6BhC-1">
          <mxGeometry x="125" y="120" width="50" height="70" as="geometry" />
        </mxCell>
        <mxCell id="TPyWH2fQd8cY5jXHpMgm-4" value="Amazon EC2" style="outlineConnect=0;fontColor=#232F3E;gradientColor=none;strokeColor=#ffffff;fillColor=#232F3E;dashed=0;verticalLabelPosition=middle;verticalAlign=bottom;align=center;html=1;whiteSpace=wrap;fontSize=10;fontStyle=1;spacing=3;shape=mxgraph.aws4.productIcon;prIcon=mxgraph.aws4.ec2;" vertex="1" parent="X9vcymnaEY-GoFMe6BhC-1">
          <mxGeometry x="175" y="120" width="50" height="70" as="geometry" />
        </mxCell>
        <mxCell id="TPyWH2fQd8cY5jXHpMgm-5" value="" style="dashed=0;outlineConnect=0;html=1;align=center;labelPosition=center;verticalLabelPosition=bottom;verticalAlign=top;shape=mxgraph.webicons.twitter;fillColor=#49EAF7;gradientColor=#137BD0" vertex="1" parent="X9vcymnaEY-GoFMe6BhC-1">
          <mxGeometry x="150" y="210" width="51" height="50" as="geometry" />
        </mxCell>
        <mxCell id="TPyWH2fQd8cY5jXHpMgm-6" value="" style="points=[[0,0,0],[0.25,0,0],[0.5,0,0],[0.75,0,0],[1,0,0],[0,1,0],[0.25,1,0],[0.5,1,0],[0.75,1,0],[1,1,0],[0,0.25,0],[0,0.5,0],[0,0.75,0],[1,0.25,0],[1,0.5,0],[1,0.75,0]];outlineConnect=0;fontColor=#232F3E;gradientColor=#945DF2;gradientDirection=north;fillColor=#5A30B5;strokeColor=#ffffff;dashed=0;verticalLabelPosition=bottom;verticalAlign=top;align=center;html=1;fontSize=12;fontStyle=0;aspect=fixed;shape=mxgraph.aws4.resourceIcon;resIcon=mxgraph.aws4.managed_streaming_for_kafka;" vertex="1" parent="X9vcymnaEY-GoFMe6BhC-1">
          <mxGeometry x="290" y="104.5" width="44" height="44" as="geometry" />
        </mxCell>
        <mxCell id="TPyWH2fQd8cY5jXHpMgm-12" value="" style="rounded=1;whiteSpace=wrap;html=1;fillColor=none;" vertex="1" parent="X9vcymnaEY-GoFMe6BhC-1">
          <mxGeometry x="260" y="85" width="130" height="140" as="geometry" />
        </mxCell>
        <mxCell id="TPyWH2fQd8cY5jXHpMgm-13" value="" style="rounded=1;whiteSpace=wrap;html=1;fillColor=none;" vertex="1" parent="X9vcymnaEY-GoFMe6BhC-1">
          <mxGeometry x="120" y="20" width="120" height="280" as="geometry" />
        </mxCell>
        <mxCell id="TPyWH2fQd8cY5jXHpMgm-14" value="" style="shape=image;html=1;verticalAlign=top;verticalLabelPosition=bottom;labelBackgroundColor=#ffffff;imageAspect=0;aspect=fixed;image=https://cdn4.iconfinder.com/data/icons/logos-and-brands/512/267_Python_logo-128.png;fillColor=none;" vertex="1" parent="X9vcymnaEY-GoFMe6BhC-1">
          <mxGeometry x="150" y="44.5" width="60" height="60" as="geometry" />
        </mxCell>
        <mxCell id="TPyWH2fQd8cY5jXHpMgm-17" value="" style="outlineConnect=0;dashed=0;verticalLabelPosition=bottom;verticalAlign=top;align=center;html=1;shape=mxgraph.aws3.topic;fillColor=#5294CF;gradientColor=none;" vertex="1" parent="X9vcymnaEY-GoFMe6BhC-1">
          <mxGeometry x="360" y="120" width="20" height="30" as="geometry" />
        </mxCell>
        <mxCell id="TPyWH2fQd8cY5jXHpMgm-18" value="" style="dashed=0;outlineConnect=0;html=1;align=center;labelPosition=center;verticalLabelPosition=bottom;verticalAlign=top;shape=mxgraph.webicons.mongodb;gradientColor=#DFDEDE" vertex="1" parent="X9vcymnaEY-GoFMe6BhC-1">
          <mxGeometry x="470" y="124" width="80" height="72" as="geometry" />
        </mxCell>
        <mxCell id="TPyWH2fQd8cY5jXHpMgm-19" value="" style="outlineConnect=0;dashed=0;verticalLabelPosition=bottom;verticalAlign=top;align=center;html=1;shape=mxgraph.aws3.topic;fillColor=#5294CF;gradientColor=none;" vertex="1" parent="X9vcymnaEY-GoFMe6BhC-1">
          <mxGeometry x="350" y="170" width="20" height="30" as="geometry" />
        </mxCell>
        <mxCell id="TPyWH2fQd8cY5jXHpMgm-20" value="" style="outlineConnect=0;dashed=0;verticalLabelPosition=bottom;verticalAlign=top;align=center;html=1;shape=mxgraph.aws3.topic;fillColor=#5294CF;gradientColor=none;" vertex="1" parent="X9vcymnaEY-GoFMe6BhC-1">
          <mxGeometry x="302" y="170" width="20" height="30" as="geometry" />
        </mxCell>
        <mxCell id="TPyWH2fQd8cY5jXHpMgm-21" value="" style="shape=image;html=1;verticalAlign=top;verticalLabelPosition=bottom;labelBackgroundColor=#ffffff;imageAspect=0;aspect=fixed;image=https://cdn4.iconfinder.com/data/icons/logos-brands-5/24/flask-128.png;fillColor=none;" vertex="1" parent="X9vcymnaEY-GoFMe6BhC-1">
          <mxGeometry x="620" y="125" width="75" height="75" as="geometry" />
        </mxCell>
      </root>
    </mxGraphModel>
  </diagram>
</mxfile>
